<?xml version="1.0" encoding="UTF-8"?>
<svg xmlns="http://www.w3.org/2000/svg" xmlns:xlink="http://www.w3.org/1999/xlink" width="660pt" height="356pt" viewBox="0 0 660 356" version="1.1">
<g id="surface873">
<path style=" stroke:none;fill-rule:nonzero;fill:rgb(100%,0%,0%);fill-opacity:1;" d="M 627 307.75 C 627 319.886719 617.148438 329.722656 605 329.722656 C 592.851562 329.722656 583 319.886719 583 307.75 C 583 295.613281 592.851562 285.777344 605 285.777344 C 617.148438 285.777344 627 295.613281 627 307.75 "/>
<path style="fill:none;stroke-width:0.12;stroke-linecap:butt;stroke-linejoin:miter;stroke:rgb(100%,0%,0%);stroke-opacity:1;stroke-miterlimit:10;" d="M 6 3.031089 L 5.8 2.684663 " transform="matrix(100,0,0,99.881597,5,5)"/>
<path style="fill:none;stroke-width:0.12;stroke-linecap:butt;stroke-linejoin:miter;stroke:rgb(100%,0%,0%);stroke-opacity:1;stroke-miterlimit:10;" d="M 5.8 2.684663 L 5.7 2.511489 " transform="matrix(100,0,0,99.881597,5,5)"/>
<path style="fill:none;stroke-width:0.12;stroke-linecap:butt;stroke-linejoin:miter;stroke:rgb(100%,0%,0%);stroke-opacity:1;stroke-miterlimit:10;" d="M 5.846406 2.365066 C 5.774961 2.488806 5.642891 2.565068 5.5 2.565068 " transform="matrix(100,0,0,99.881597,5,5)"/>
<path style="fill:none;stroke-width:0.12;stroke-linecap:butt;stroke-linejoin:miter;stroke:rgb(100%,0%,0%);stroke-opacity:1;stroke-miterlimit:10;" d="M 5.5 2.565068 C 5.357109 2.565068 5.225039 2.488806 5.153594 2.365066 " transform="matrix(100,0,0,99.881597,5,5)"/>
<path style="fill:none;stroke-width:0.12;stroke-linecap:butt;stroke-linejoin:miter;stroke:rgb(100%,0%,0%);stroke-opacity:1;stroke-miterlimit:10;" d="M 5.153594 2.365066 C 5.082148 2.241287 5.082148 2.08884 5.153594 1.965061 " transform="matrix(100,0,0,99.881597,5,5)"/>
<path style="fill:none;stroke-width:0.12;stroke-linecap:butt;stroke-linejoin:miter;stroke:rgb(100%,0%,0%);stroke-opacity:1;stroke-miterlimit:10;" d="M 5.846406 1.965061 C 5.917852 2.08884 5.917852 2.241287 5.846406 2.365066 " transform="matrix(100,0,0,99.881597,5,5)"/>
<path style="fill:none;stroke-width:0.12;stroke-linecap:butt;stroke-linejoin:miter;stroke:rgb(100%,0%,0%);stroke-opacity:1;stroke-miterlimit:10;" d="M 5.5 1.765059 C 5.642891 1.765059 5.774961 1.841321 5.846406 1.965061 " transform="matrix(100,0,0,99.881597,5,5)"/>
<path style=" stroke:none;fill-rule:nonzero;fill:rgb(100%,0%,0%);fill-opacity:1;" d="M 627 134.75 C 627 146.886719 617.148438 156.722656 605 156.722656 C 592.851562 156.722656 583 146.886719 583 134.75 C 583 122.613281 592.851562 112.777344 605 112.777344 C 617.148438 112.777344 627 122.613281 627 134.75 "/>
<path style="fill:none;stroke-width:0.12;stroke-linecap:butt;stroke-linejoin:miter;stroke:rgb(100%,0%,0%);stroke-opacity:1;stroke-miterlimit:10;" d="M 6 1.299038 L 5.8 1.645464 " transform="matrix(100,0,0,99.881597,5,5)"/>
<path style="fill:none;stroke-width:0.12;stroke-linecap:butt;stroke-linejoin:miter;stroke:rgb(100%,0%,0%);stroke-opacity:1;stroke-miterlimit:10;" d="M 5.8 1.645464 L 5.7 1.818638 " transform="matrix(100,0,0,99.881597,5,5)"/>
<path style="fill:none;stroke-width:0.12;stroke-linecap:butt;stroke-linejoin:miter;stroke:rgb(50%,0%,50%);stroke-opacity:1;stroke-miterlimit:10;" d="M 1.846406 2.365066 C 1.774961 2.488806 1.642891 2.565068 1.5 2.565068 " transform="matrix(100,0,0,99.881597,5,5)"/>
<path style="fill:none;stroke-width:0.12;stroke-linecap:butt;stroke-linejoin:miter;stroke:rgb(50%,0%,50%);stroke-opacity:1;stroke-miterlimit:10;" d="M 1.5 2.565068 C 1.357109 2.565068 1.225039 2.488806 1.153594 2.365066 " transform="matrix(100,0,0,99.881597,5,5)"/>
<path style="fill:none;stroke-width:0.12;stroke-linecap:butt;stroke-linejoin:miter;stroke:rgb(50%,0%,50%);stroke-opacity:1;stroke-miterlimit:10;" d="M 1.153594 2.365066 C 1.082148 2.241287 1.082148 2.08884 1.153594 1.965061 " transform="matrix(100,0,0,99.881597,5,5)"/>
<path style="fill:none;stroke-width:0.12;stroke-linecap:butt;stroke-linejoin:miter;stroke:rgb(50%,0%,50%);stroke-opacity:1;stroke-miterlimit:10;" d="M 1.153594 1.965061 C 1.225039 1.841321 1.357109 1.765059 1.5 1.765059 " transform="matrix(100,0,0,99.881597,5,5)"/>
<path style="fill:none;stroke-width:0.12;stroke-linecap:butt;stroke-linejoin:miter;stroke:rgb(50%,0%,50%);stroke-opacity:1;stroke-miterlimit:10;" d="M 1.846406 1.965061 C 1.917852 2.08884 1.917852 2.241287 1.846406 2.365066 " transform="matrix(100,0,0,99.881597,5,5)"/>
<path style="fill:none;stroke-width:0.12;stroke-linecap:butt;stroke-linejoin:miter;stroke:rgb(50%,0%,50%);stroke-opacity:1;stroke-miterlimit:10;" d="M 1.5 1.765059 C 1.642891 1.765059 1.774961 1.841321 1.846406 1.965061 " transform="matrix(100,0,0,99.881597,5,5)"/>
<path style="fill:none;stroke-width:0.12;stroke-linecap:butt;stroke-linejoin:miter;stroke:rgb(50%,0%,50%);stroke-opacity:1;stroke-miterlimit:10;" d="M 0.5 2.565068 C 0.357109 2.565068 0.225039 2.488806 0.153594 2.365066 " transform="matrix(100,0,0,99.881597,5,5)"/>
<path style="fill:none;stroke-width:0.12;stroke-linecap:butt;stroke-linejoin:miter;stroke:rgb(50%,0%,50%);stroke-opacity:1;stroke-miterlimit:10;" d="M 0.153594 2.365066 C 0.0821484 2.241287 0.0821484 2.08884 0.153594 1.965061 " transform="matrix(100,0,0,99.881597,5,5)"/>
<path style="fill:none;stroke-width:0.12;stroke-linecap:butt;stroke-linejoin:miter;stroke:rgb(50%,0%,50%);stroke-opacity:1;stroke-miterlimit:10;" d="M 0.153594 1.965061 C 0.225039 1.841321 0.357109 1.765059 0.5 1.765059 " transform="matrix(100,0,0,99.881597,5,5)"/>
<path style="fill:none;stroke-width:0.12;stroke-linecap:butt;stroke-linejoin:miter;stroke:rgb(50%,0%,50%);stroke-opacity:1;stroke-miterlimit:10;" d="M 0.846406 1.965061 C 0.917852 2.08884 0.917852 2.241287 0.846406 2.365066 " transform="matrix(100,0,0,99.881597,5,5)"/>
<path style="fill:none;stroke-width:0.12;stroke-linecap:butt;stroke-linejoin:miter;stroke:rgb(50%,0%,50%);stroke-opacity:1;stroke-miterlimit:10;" d="M 0.5 1.765059 C 0.642891 1.765059 0.774961 1.841321 0.846406 1.965061 " transform="matrix(100,0,0,99.881597,5,5)"/>
<path style="fill:none;stroke-width:0.12;stroke-linecap:butt;stroke-linejoin:miter;stroke:rgb(50%,0%,50%);stroke-opacity:1;stroke-miterlimit:10;" d="M 0.9 2.165064 L 1.1 2.165064 " transform="matrix(100,0,0,99.881597,5,5)"/>
<path style=" stroke:none;fill-rule:nonzero;fill:rgb(50%,0%,50%);fill-opacity:1;" d="M 227 134.75 C 227 146.886719 217.148438 156.722656 205 156.722656 C 192.851562 156.722656 183 146.886719 183 134.75 C 183 122.613281 192.851562 112.777344 205 112.777344 C 217.148438 112.777344 227 122.613281 227 134.75 "/>
<path style="fill:none;stroke-width:0.12;stroke-linecap:butt;stroke-linejoin:miter;stroke:rgb(50%,0%,50%);stroke-opacity:1;stroke-miterlimit:10;" d="M 2 1.299038 L 1.8 1.645464 " transform="matrix(100,0,0,99.881597,5,5)"/>
<path style="fill:none;stroke-width:0.12;stroke-linecap:butt;stroke-linejoin:miter;stroke:rgb(50%,0%,50%);stroke-opacity:1;stroke-miterlimit:10;" d="M 1.8 1.645464 L 1.7 1.818638 " transform="matrix(100,0,0,99.881597,5,5)"/>
<path style="fill:none;stroke-width:0.12;stroke-linecap:butt;stroke-linejoin:miter;stroke:rgb(100%,50%,80%);stroke-opacity:1;stroke-miterlimit:10;" d="M 2.846406 2.365066 C 2.774961 2.488806 2.642891 2.565068 2.5 2.565068 " transform="matrix(100,0,0,99.881597,5,5)"/>
<path style="fill:none;stroke-width:0.12;stroke-linecap:butt;stroke-linejoin:miter;stroke:rgb(100%,50%,80%);stroke-opacity:1;stroke-miterlimit:10;" d="M 2.5 2.565068 C 2.357109 2.565068 2.225039 2.488806 2.153594 2.365066 " transform="matrix(100,0,0,99.881597,5,5)"/>
<path style="fill:none;stroke-width:0.12;stroke-linecap:butt;stroke-linejoin:miter;stroke:rgb(100%,50%,80%);stroke-opacity:1;stroke-miterlimit:10;" d="M 2.153594 2.365066 C 2.082148 2.241287 2.082148 2.08884 2.153594 1.965061 " transform="matrix(100,0,0,99.881597,5,5)"/>
<path style="fill:none;stroke-width:0.12;stroke-linecap:butt;stroke-linejoin:miter;stroke:rgb(100%,50%,80%);stroke-opacity:1;stroke-miterlimit:10;" d="M 2.153594 1.965061 C 2.225039 1.841321 2.357109 1.765059 2.5 1.765059 " transform="matrix(100,0,0,99.881597,5,5)"/>
<path style="fill:none;stroke-width:0.12;stroke-linecap:butt;stroke-linejoin:miter;stroke:rgb(100%,50%,80%);stroke-opacity:1;stroke-miterlimit:10;" d="M 2.846406 1.965061 C 2.917852 2.08884 2.917852 2.241287 2.846406 2.365066 " transform="matrix(100,0,0,99.881597,5,5)"/>
<path style="fill:none;stroke-width:0.12;stroke-linecap:butt;stroke-linejoin:miter;stroke:rgb(100%,50%,80%);stroke-opacity:1;stroke-miterlimit:10;" d="M 2.5 1.765059 C 2.642891 1.765059 2.774961 1.841321 2.846406 1.965061 " transform="matrix(100,0,0,99.881597,5,5)"/>
<path style="fill:none;stroke-width:0.12;stroke-linecap:butt;stroke-linejoin:miter;stroke:rgb(100%,50%,80%);stroke-opacity:1;stroke-miterlimit:10;" d="M 2.346406 1.499041 C 2.274961 1.622781 2.142891 1.699043 2 1.699043 " transform="matrix(100,0,0,99.881597,5,5)"/>
<path style="fill:none;stroke-width:0.12;stroke-linecap:butt;stroke-linejoin:miter;stroke:rgb(100%,50%,80%);stroke-opacity:1;stroke-miterlimit:10;" d="M 1.653594 1.499041 C 1.582148 1.375261 1.582148 1.222815 1.653594 1.099036 " transform="matrix(100,0,0,99.881597,5,5)"/>
<path style="fill:none;stroke-width:0.12;stroke-linecap:butt;stroke-linejoin:miter;stroke:rgb(100%,50%,80%);stroke-opacity:1;stroke-miterlimit:10;" d="M 1.653594 1.099036 C 1.725039 0.975295 1.857109 0.899033 2 0.899033 " transform="matrix(100,0,0,99.881597,5,5)"/>
<path style="fill:none;stroke-width:0.12;stroke-linecap:butt;stroke-linejoin:miter;stroke:rgb(100%,50%,80%);stroke-opacity:1;stroke-miterlimit:10;" d="M 2.346406 1.099036 C 2.417852 1.222815 2.417852 1.375261 2.346406 1.499041 " transform="matrix(100,0,0,99.881597,5,5)"/>
<path style="fill:none;stroke-width:0.12;stroke-linecap:butt;stroke-linejoin:miter;stroke:rgb(100%,50%,80%);stroke-opacity:1;stroke-miterlimit:10;" d="M 2 0.899033 C 2.142891 0.899033 2.274961 0.975295 2.346406 1.099036 " transform="matrix(100,0,0,99.881597,5,5)"/>
<path style="fill:none;stroke-width:0.12;stroke-linecap:butt;stroke-linejoin:miter;stroke:rgb(100%,50%,80%);stroke-opacity:1;stroke-miterlimit:10;" d="M 2.2 1.645464 L 2.3 1.818638 " transform="matrix(100,0,0,99.881597,5,5)"/>
<path style=" stroke:none;fill-rule:nonzero;fill:rgb(100%,50%,80%);fill-opacity:1;" d="M 227 307.75 C 227 319.886719 217.148438 329.722656 205 329.722656 C 192.851562 329.722656 183 319.886719 183 307.75 C 183 295.613281 192.851562 285.777344 205 285.777344 C 217.148438 285.777344 227 295.613281 227 307.75 "/>
<path style="fill:none;stroke-width:0.12;stroke-linecap:butt;stroke-linejoin:miter;stroke:rgb(100%,50%,80%);stroke-opacity:1;stroke-miterlimit:10;" d="M 2 3.031089 L 2.2 2.684663 " transform="matrix(100,0,0,99.881597,5,5)"/>
<path style="fill:none;stroke-width:0.12;stroke-linecap:butt;stroke-linejoin:miter;stroke:rgb(100%,50%,80%);stroke-opacity:1;stroke-miterlimit:10;" d="M 2.2 2.684663 L 2.3 2.511489 " transform="matrix(100,0,0,99.881597,5,5)"/>
<path style="fill:none;stroke-width:0.12;stroke-linecap:butt;stroke-linejoin:miter;stroke:rgb(100%,100%,0%);stroke-opacity:1;stroke-miterlimit:10;" d="M 5.846406 0.633015 C 5.774961 0.756755 5.642891 0.833018 5.5 0.833018 " transform="matrix(100,0,0,99.881597,5,5)"/>
<path style="fill:none;stroke-width:0.12;stroke-linecap:butt;stroke-linejoin:miter;stroke:rgb(100%,100%,0%);stroke-opacity:1;stroke-miterlimit:10;" d="M 5.5 0.833018 C 5.357109 0.833018 5.225039 0.756755 5.153594 0.633015 " transform="matrix(100,0,0,99.881597,5,5)"/>
<path style="fill:none;stroke-width:0.12;stroke-linecap:butt;stroke-linejoin:miter;stroke:rgb(100%,100%,0%);stroke-opacity:1;stroke-miterlimit:10;" d="M 5.153594 0.633015 C 5.082148 0.509236 5.082148 0.35679 5.153594 0.23301 " transform="matrix(100,0,0,99.881597,5,5)"/>
<path style="fill:none;stroke-width:0.12;stroke-linecap:butt;stroke-linejoin:miter;stroke:rgb(100%,100%,0%);stroke-opacity:1;stroke-miterlimit:10;" d="M 5.153594 0.23301 C 5.225039 0.10927 5.357109 0.0330078 5.5 0.0330078 " transform="matrix(100,0,0,99.881597,5,5)"/>
<path style="fill:none;stroke-width:0.12;stroke-linecap:butt;stroke-linejoin:miter;stroke:rgb(100%,100%,0%);stroke-opacity:1;stroke-miterlimit:10;" d="M 5.846406 0.23301 C 5.917852 0.35679 5.917852 0.509236 5.846406 0.633015 " transform="matrix(100,0,0,99.881597,5,5)"/>
<path style="fill:none;stroke-width:0.12;stroke-linecap:butt;stroke-linejoin:miter;stroke:rgb(100%,100%,0%);stroke-opacity:1;stroke-miterlimit:10;" d="M 5.5 0.0330078 C 5.642891 0.0330078 5.774961 0.10927 5.846406 0.23301 " transform="matrix(100,0,0,99.881597,5,5)"/>
<path style="fill:none;stroke-width:0.12;stroke-linecap:butt;stroke-linejoin:miter;stroke:rgb(100%,100%,0%);stroke-opacity:1;stroke-miterlimit:10;" d="M 4.846406 0.633015 C 4.774961 0.756755 4.642891 0.833018 4.5 0.833018 " transform="matrix(100,0,0,99.881597,5,5)"/>
<path style="fill:none;stroke-width:0.12;stroke-linecap:butt;stroke-linejoin:miter;stroke:rgb(100%,100%,0%);stroke-opacity:1;stroke-miterlimit:10;" d="M 4.5 0.833018 C 4.357109 0.833018 4.225039 0.756755 4.153594 0.633015 " transform="matrix(100,0,0,99.881597,5,5)"/>
<path style="fill:none;stroke-width:0.12;stroke-linecap:butt;stroke-linejoin:miter;stroke:rgb(100%,100%,0%);stroke-opacity:1;stroke-miterlimit:10;" d="M 4.153594 0.23301 C 4.225039 0.10927 4.357109 0.0330078 4.5 0.0330078 " transform="matrix(100,0,0,99.881597,5,5)"/>
<path style="fill:none;stroke-width:0.12;stroke-linecap:butt;stroke-linejoin:miter;stroke:rgb(100%,100%,0%);stroke-opacity:1;stroke-miterlimit:10;" d="M 4.846406 0.23301 C 4.917852 0.35679 4.917852 0.509236 4.846406 0.633015 " transform="matrix(100,0,0,99.881597,5,5)"/>
<path style="fill:none;stroke-width:0.12;stroke-linecap:butt;stroke-linejoin:miter;stroke:rgb(100%,100%,0%);stroke-opacity:1;stroke-miterlimit:10;" d="M 4.5 0.0330078 C 4.642891 0.0330078 4.774961 0.10927 4.846406 0.23301 " transform="matrix(100,0,0,99.881597,5,5)"/>
<path style="fill:none;stroke-width:0.12;stroke-linecap:butt;stroke-linejoin:miter;stroke:rgb(100%,100%,0%);stroke-opacity:1;stroke-miterlimit:10;" d="M 4.9 0.433013 L 5.1 0.433013 " transform="matrix(100,0,0,99.881597,5,5)"/>
<path style="fill:none;stroke-width:0.12;stroke-linecap:butt;stroke-linejoin:miter;stroke:rgb(100%,100%,0%);stroke-opacity:1;stroke-miterlimit:10;" d="M 6.346406 1.499041 C 6.274961 1.622781 6.142891 1.699043 6 1.699043 " transform="matrix(100,0,0,99.881597,5,5)"/>
<path style="fill:none;stroke-width:0.12;stroke-linecap:butt;stroke-linejoin:miter;stroke:rgb(100%,100%,0%);stroke-opacity:1;stroke-miterlimit:10;" d="M 5.653594 1.499041 C 5.582148 1.375261 5.582148 1.222815 5.653594 1.099036 " transform="matrix(100,0,0,99.881597,5,5)"/>
<path style="fill:none;stroke-width:0.12;stroke-linecap:butt;stroke-linejoin:miter;stroke:rgb(100%,100%,0%);stroke-opacity:1;stroke-miterlimit:10;" d="M 5.653594 1.099036 C 5.725039 0.975295 5.857109 0.899033 6 0.899033 " transform="matrix(100,0,0,99.881597,5,5)"/>
<path style="fill:none;stroke-width:0.12;stroke-linecap:butt;stroke-linejoin:miter;stroke:rgb(100%,100%,0%);stroke-opacity:1;stroke-miterlimit:10;" d="M 6.346406 1.099036 C 6.417852 1.222815 6.417852 1.375261 6.346406 1.499041 " transform="matrix(100,0,0,99.881597,5,5)"/>
<path style="fill:none;stroke-width:0.12;stroke-linecap:butt;stroke-linejoin:miter;stroke:rgb(100%,100%,0%);stroke-opacity:1;stroke-miterlimit:10;" d="M 6 0.899033 C 6.142891 0.899033 6.274961 0.975295 6.346406 1.099036 " transform="matrix(100,0,0,99.881597,5,5)"/>
<path style="fill:none;stroke-width:0.12;stroke-linecap:butt;stroke-linejoin:miter;stroke:rgb(100%,100%,0%);stroke-opacity:1;stroke-miterlimit:10;" d="M 5.8 0.952612 L 5.7 0.779439 " transform="matrix(100,0,0,99.881597,5,5)"/>
<path style=" stroke:none;fill-rule:nonzero;fill:rgb(0%,50%,60%);fill-opacity:1;" d="M 77 221.25 C 77 233.386719 67.148438 243.222656 55 243.222656 C 42.851562 243.222656 33 233.386719 33 221.25 C 33 209.113281 42.851562 199.277344 55 199.277344 C 67.148438 199.277344 77 209.113281 77 221.25 "/>
<path style="fill:none;stroke-width:0.12;stroke-linecap:butt;stroke-linejoin:miter;stroke:rgb(0%,50%,60%);stroke-opacity:1;stroke-miterlimit:10;" d="M 0.5 2.165064 L 0.7 2.511489 " transform="matrix(100,0,0,99.881597,5,5)"/>
<path style="fill:none;stroke-width:0.12;stroke-linecap:butt;stroke-linejoin:miter;stroke:rgb(0%,50%,60%);stroke-opacity:1;stroke-miterlimit:10;" d="M 0.7 2.511489 L 0.8 2.684663 " transform="matrix(100,0,0,99.881597,5,5)"/>
<path style="fill:none;stroke-width:0.12;stroke-linecap:butt;stroke-linejoin:miter;stroke:rgb(0%,50%,60%);stroke-opacity:1;stroke-miterlimit:10;" d="M 1.346406 3.231091 C 1.274961 3.354832 1.142891 3.431094 1 3.431094 " transform="matrix(100,0,0,99.881597,5,5)"/>
<path style="fill:none;stroke-width:0.12;stroke-linecap:butt;stroke-linejoin:miter;stroke:rgb(0%,50%,60%);stroke-opacity:1;stroke-miterlimit:10;" d="M 1 3.431094 C 0.857109 3.431094 0.725039 3.354832 0.653594 3.231091 " transform="matrix(100,0,0,99.881597,5,5)"/>
<path style="fill:none;stroke-width:0.12;stroke-linecap:butt;stroke-linejoin:miter;stroke:rgb(0%,50%,60%);stroke-opacity:1;stroke-miterlimit:10;" d="M 0.653594 3.231091 C 0.582148 3.107312 0.582148 2.954866 0.653594 2.831086 " transform="matrix(100,0,0,99.881597,5,5)"/>
<path style="fill:none;stroke-width:0.12;stroke-linecap:butt;stroke-linejoin:miter;stroke:rgb(0%,50%,60%);stroke-opacity:1;stroke-miterlimit:10;" d="M 0.653594 2.831086 C 0.725039 2.707346 0.857109 2.631084 1 2.631084 " transform="matrix(100,0,0,99.881597,5,5)"/>
<path style="fill:none;stroke-width:0.12;stroke-linecap:butt;stroke-linejoin:miter;stroke:rgb(0%,50%,60%);stroke-opacity:1;stroke-miterlimit:10;" d="M 1.346406 2.831086 C 1.417852 2.954866 1.417852 3.107312 1.346406 3.231091 " transform="matrix(100,0,0,99.881597,5,5)"/>
<path style="fill:none;stroke-width:0.12;stroke-linecap:butt;stroke-linejoin:miter;stroke:rgb(0%,50%,60%);stroke-opacity:1;stroke-miterlimit:10;" d="M 1 2.631084 C 1.142891 2.631084 1.274961 2.707346 1.346406 2.831086 " transform="matrix(100,0,0,99.881597,5,5)"/>
<path style="fill:none;stroke-width:0.12;stroke-linecap:butt;stroke-linejoin:miter;stroke:rgb(0%,50%,60%);stroke-opacity:1;stroke-miterlimit:10;" d="M 2.346406 3.231091 C 2.274961 3.354832 2.142891 3.431094 2 3.431094 " transform="matrix(100,0,0,99.881597,5,5)"/>
<path style="fill:none;stroke-width:0.12;stroke-linecap:butt;stroke-linejoin:miter;stroke:rgb(0%,50%,60%);stroke-opacity:1;stroke-miterlimit:10;" d="M 2 3.431094 C 1.857109 3.431094 1.725039 3.354832 1.653594 3.231091 " transform="matrix(100,0,0,99.881597,5,5)"/>
<path style="fill:none;stroke-width:0.12;stroke-linecap:butt;stroke-linejoin:miter;stroke:rgb(0%,50%,60%);stroke-opacity:1;stroke-miterlimit:10;" d="M 1.653594 3.231091 C 1.582148 3.107312 1.582148 2.954866 1.653594 2.831086 " transform="matrix(100,0,0,99.881597,5,5)"/>
<path style="fill:none;stroke-width:0.12;stroke-linecap:butt;stroke-linejoin:miter;stroke:rgb(0%,50%,60%);stroke-opacity:1;stroke-miterlimit:10;" d="M 1.653594 2.831086 C 1.725039 2.707346 1.857109 2.631084 2 2.631084 " transform="matrix(100,0,0,99.881597,5,5)"/>
<path style="fill:none;stroke-width:0.12;stroke-linecap:butt;stroke-linejoin:miter;stroke:rgb(0%,50%,60%);stroke-opacity:1;stroke-miterlimit:10;" d="M 2.346406 2.831086 C 2.417852 2.954866 2.417852 3.107312 2.346406 3.231091 " transform="matrix(100,0,0,99.881597,5,5)"/>
<path style="fill:none;stroke-width:0.12;stroke-linecap:butt;stroke-linejoin:miter;stroke:rgb(0%,50%,60%);stroke-opacity:1;stroke-miterlimit:10;" d="M 1.6 3.031089 L 1.4 3.031089 " transform="matrix(100,0,0,99.881597,5,5)"/>
<path style="fill:none;stroke-width:0.12;stroke-linecap:butt;stroke-linejoin:miter;stroke:rgb(50%,0%,50%);stroke-opacity:1;stroke-miterlimit:10;" d="M 2.153594 0.633015 C 2.082148 0.509236 2.082148 0.35679 2.153594 0.23301 " transform="matrix(100,0,0,99.881597,5,5)"/>
<path style="fill:none;stroke-width:0.12;stroke-linecap:butt;stroke-linejoin:miter;stroke:rgb(50%,0%,50%);stroke-opacity:1;stroke-miterlimit:10;" d="M 2.153594 0.23301 C 2.225039 0.10927 2.357109 0.0330078 2.5 0.0330078 " transform="matrix(100,0,0,99.881597,5,5)"/>
<path style="fill:none;stroke-width:0.12;stroke-linecap:butt;stroke-linejoin:miter;stroke:rgb(50%,0%,50%);stroke-opacity:1;stroke-miterlimit:10;" d="M 2.846406 0.23301 C 2.917852 0.35679 2.917852 0.509236 2.846406 0.633015 " transform="matrix(100,0,0,99.881597,5,5)"/>
<path style="fill:none;stroke-width:0.12;stroke-linecap:butt;stroke-linejoin:miter;stroke:rgb(50%,0%,50%);stroke-opacity:1;stroke-miterlimit:10;" d="M 2.5 0.0330078 C 2.642891 0.0330078 2.774961 0.10927 2.846406 0.23301 " transform="matrix(100,0,0,99.881597,5,5)"/>
<path style=" stroke:none;fill-rule:nonzero;fill:rgb(50%,0%,50%);fill-opacity:1;" d="M 377 48.25 C 377 60.386719 367.148438 70.222656 355 70.222656 C 342.851562 70.222656 333 60.386719 333 48.25 C 333 36.113281 342.851562 26.277344 355 26.277344 C 367.148438 26.277344 377 36.113281 377 48.25 "/>
<path style="fill:none;stroke-width:0.12;stroke-linecap:butt;stroke-linejoin:miter;stroke:rgb(50%,0%,50%);stroke-opacity:1;stroke-miterlimit:10;" d="M 3.5 0.433013 L 3.1 0.433013 " transform="matrix(100,0,0,99.881597,5,5)"/>
<path style="fill:none;stroke-width:0.12;stroke-linecap:butt;stroke-linejoin:miter;stroke:rgb(50%,0%,50%);stroke-opacity:1;stroke-miterlimit:10;" d="M 3.1 0.433013 L 2.9 0.433013 " transform="matrix(100,0,0,99.881597,5,5)"/>
<path style=" stroke:none;fill-rule:nonzero;fill:rgb(50%,0%,50%);fill-opacity:1;" d="M 177 48.25 C 177 60.386719 167.148438 70.222656 155 70.222656 C 142.851562 70.222656 133 60.386719 133 48.25 C 133 36.113281 142.851562 26.277344 155 26.277344 C 167.148438 26.277344 177 36.113281 177 48.25 "/>
<path style="fill:none;stroke-width:0.12;stroke-linecap:butt;stroke-linejoin:miter;stroke:rgb(50%,0%,50%);stroke-opacity:1;stroke-miterlimit:10;" d="M 1.5 0.433013 L 1.9 0.433013 " transform="matrix(100,0,0,99.881597,5,5)"/>
<path style="fill:none;stroke-width:0.12;stroke-linecap:butt;stroke-linejoin:miter;stroke:rgb(50%,0%,50%);stroke-opacity:1;stroke-miterlimit:10;" d="M 1.9 0.433013 L 2.1 0.433013 " transform="matrix(100,0,0,99.881597,5,5)"/>
<path style="fill:none;stroke-width:0.12;stroke-linecap:butt;stroke-linejoin:miter;stroke:rgb(50%,100%,0%);stroke-opacity:1;stroke-miterlimit:10;" d="M 5.346406 3.231091 C 5.274961 3.354832 5.142891 3.431094 5 3.431094 " transform="matrix(100,0,0,99.881597,5,5)"/>
<path style="fill:none;stroke-width:0.12;stroke-linecap:butt;stroke-linejoin:miter;stroke:rgb(50%,100%,0%);stroke-opacity:1;stroke-miterlimit:10;" d="M 5 3.431094 C 4.857109 3.431094 4.725039 3.354832 4.653594 3.231091 " transform="matrix(100,0,0,99.881597,5,5)"/>
<path style="fill:none;stroke-width:0.12;stroke-linecap:butt;stroke-linejoin:miter;stroke:rgb(50%,100%,0%);stroke-opacity:1;stroke-miterlimit:10;" d="M 4.653594 3.231091 C 4.582148 3.107312 4.582148 2.954866 4.653594 2.831086 " transform="matrix(100,0,0,99.881597,5,5)"/>
<path style="fill:none;stroke-width:0.12;stroke-linecap:butt;stroke-linejoin:miter;stroke:rgb(50%,100%,0%);stroke-opacity:1;stroke-miterlimit:10;" d="M 4.653594 2.831086 C 4.725039 2.707346 4.857109 2.631084 5 2.631084 " transform="matrix(100,0,0,99.881597,5,5)"/>
<path style="fill:none;stroke-width:0.12;stroke-linecap:butt;stroke-linejoin:miter;stroke:rgb(50%,100%,0%);stroke-opacity:1;stroke-miterlimit:10;" d="M 5.346406 2.831086 C 5.417852 2.954866 5.417852 3.107312 5.346406 3.231091 " transform="matrix(100,0,0,99.881597,5,5)"/>
<path style="fill:none;stroke-width:0.12;stroke-linecap:butt;stroke-linejoin:miter;stroke:rgb(50%,100%,0%);stroke-opacity:1;stroke-miterlimit:10;" d="M 5 2.631084 C 5.142891 2.631084 5.274961 2.707346 5.346406 2.831086 " transform="matrix(100,0,0,99.881597,5,5)"/>
<path style="fill:none;stroke-width:0.12;stroke-linecap:butt;stroke-linejoin:miter;stroke:rgb(50%,100%,0%);stroke-opacity:1;stroke-miterlimit:10;" d="M 6.346406 3.231091 C 6.274961 3.354832 6.142891 3.431094 6 3.431094 " transform="matrix(100,0,0,99.881597,5,5)"/>
<path style="fill:none;stroke-width:0.12;stroke-linecap:butt;stroke-linejoin:miter;stroke:rgb(50%,100%,0%);stroke-opacity:1;stroke-miterlimit:10;" d="M 6 3.431094 C 5.857109 3.431094 5.725039 3.354832 5.653594 3.231091 " transform="matrix(100,0,0,99.881597,5,5)"/>
<path style="fill:none;stroke-width:0.12;stroke-linecap:butt;stroke-linejoin:miter;stroke:rgb(50%,100%,0%);stroke-opacity:1;stroke-miterlimit:10;" d="M 5.653594 3.231091 C 5.582148 3.107312 5.582148 2.954866 5.653594 2.831086 " transform="matrix(100,0,0,99.881597,5,5)"/>
<path style="fill:none;stroke-width:0.12;stroke-linecap:butt;stroke-linejoin:miter;stroke:rgb(50%,100%,0%);stroke-opacity:1;stroke-miterlimit:10;" d="M 6.346406 2.831086 C 6.417852 2.954866 6.417852 3.107312 6.346406 3.231091 " transform="matrix(100,0,0,99.881597,5,5)"/>
<path style="fill:none;stroke-width:0.12;stroke-linecap:butt;stroke-linejoin:miter;stroke:rgb(50%,100%,0%);stroke-opacity:1;stroke-miterlimit:10;" d="M 6 2.631084 C 6.142891 2.631084 6.274961 2.707346 6.346406 2.831086 " transform="matrix(100,0,0,99.881597,5,5)"/>
<path style="fill:none;stroke-width:0.12;stroke-linecap:butt;stroke-linejoin:miter;stroke:rgb(50%,100%,0%);stroke-opacity:1;stroke-miterlimit:10;" d="M 5.6 3.031089 L 5.4 3.031089 " transform="matrix(100,0,0,99.881597,5,5)"/>
<path style=" stroke:none;fill-rule:nonzero;fill:rgb(50%,100%,0%);fill-opacity:1;" d="M 427 307.75 C 427 319.886719 417.148438 329.722656 405 329.722656 C 392.851562 329.722656 383 319.886719 383 307.75 C 383 295.613281 392.851562 285.777344 405 285.777344 C 417.148438 285.777344 427 295.613281 427 307.75 "/>
<path style="fill:none;stroke-width:0.12;stroke-linecap:butt;stroke-linejoin:miter;stroke:rgb(50%,100%,0%);stroke-opacity:1;stroke-miterlimit:10;" d="M 4 3.031089 L 4.4 3.031089 " transform="matrix(100,0,0,99.881597,5,5)"/>
<path style="fill:none;stroke-width:0.12;stroke-linecap:butt;stroke-linejoin:miter;stroke:rgb(50%,100%,0%);stroke-opacity:1;stroke-miterlimit:10;" d="M 4.4 3.031089 L 4.6 3.031089 " transform="matrix(100,0,0,99.881597,5,5)"/>
<path style=" stroke:none;fill-rule:nonzero;fill:rgb(0%,90%,80%);fill-opacity:1;" d="M 277 48.25 C 277 60.386719 267.148438 70.222656 255 70.222656 C 242.851562 70.222656 233 60.386719 233 48.25 C 233 36.113281 242.851562 26.277344 255 26.277344 C 267.148438 26.277344 277 36.113281 277 48.25 "/>
<path style="fill:none;stroke-width:0.12;stroke-linecap:butt;stroke-linejoin:miter;stroke:rgb(0%,90%,80%);stroke-opacity:1;stroke-miterlimit:10;" d="M 2.5 0.433013 L 2.7 0.779439 " transform="matrix(100,0,0,99.881597,5,5)"/>
<path style="fill:none;stroke-width:0.12;stroke-linecap:butt;stroke-linejoin:miter;stroke:rgb(0%,90%,80%);stroke-opacity:1;stroke-miterlimit:10;" d="M 2.7 0.779439 L 2.8 0.952612 " transform="matrix(100,0,0,99.881597,5,5)"/>
<path style="fill:none;stroke-width:0.12;stroke-linecap:butt;stroke-linejoin:miter;stroke:rgb(0%,90%,80%);stroke-opacity:1;stroke-miterlimit:10;" d="M 3.346406 1.499041 C 3.274961 1.622781 3.142891 1.699043 3 1.699043 " transform="matrix(100,0,0,99.881597,5,5)"/>
<path style="fill:none;stroke-width:0.12;stroke-linecap:butt;stroke-linejoin:miter;stroke:rgb(0%,90%,80%);stroke-opacity:1;stroke-miterlimit:10;" d="M 3 1.699043 C 2.857109 1.699043 2.725039 1.622781 2.653594 1.499041 " transform="matrix(100,0,0,99.881597,5,5)"/>
<path style="fill:none;stroke-width:0.12;stroke-linecap:butt;stroke-linejoin:miter;stroke:rgb(0%,90%,80%);stroke-opacity:1;stroke-miterlimit:10;" d="M 2.653594 1.499041 C 2.582148 1.375261 2.582148 1.222815 2.653594 1.099036 " transform="matrix(100,0,0,99.881597,5,5)"/>
<path style="fill:none;stroke-width:0.12;stroke-linecap:butt;stroke-linejoin:miter;stroke:rgb(0%,90%,80%);stroke-opacity:1;stroke-miterlimit:10;" d="M 2.653594 1.099036 C 2.725039 0.975295 2.857109 0.899033 3 0.899033 " transform="matrix(100,0,0,99.881597,5,5)"/>
<path style="fill:none;stroke-width:0.12;stroke-linecap:butt;stroke-linejoin:miter;stroke:rgb(0%,90%,80%);stroke-opacity:1;stroke-miterlimit:10;" d="M 3.346406 1.099036 C 3.417852 1.222815 3.417852 1.375261 3.346406 1.499041 " transform="matrix(100,0,0,99.881597,5,5)"/>
<path style="fill:none;stroke-width:0.12;stroke-linecap:butt;stroke-linejoin:miter;stroke:rgb(0%,90%,80%);stroke-opacity:1;stroke-miterlimit:10;" d="M 3 0.899033 C 3.142891 0.899033 3.274961 0.975295 3.346406 1.099036 " transform="matrix(100,0,0,99.881597,5,5)"/>
<path style="fill:none;stroke-width:0.12;stroke-linecap:butt;stroke-linejoin:miter;stroke:rgb(0%,90%,80%);stroke-opacity:1;stroke-miterlimit:10;" d="M 3.846406 2.365066 C 3.774961 2.488806 3.642891 2.565068 3.5 2.565068 " transform="matrix(100,0,0,99.881597,5,5)"/>
<path style="fill:none;stroke-width:0.12;stroke-linecap:butt;stroke-linejoin:miter;stroke:rgb(0%,90%,80%);stroke-opacity:1;stroke-miterlimit:10;" d="M 3.153594 2.365066 C 3.082148 2.241287 3.082148 2.08884 3.153594 1.965061 " transform="matrix(100,0,0,99.881597,5,5)"/>
<path style="fill:none;stroke-width:0.12;stroke-linecap:butt;stroke-linejoin:miter;stroke:rgb(0%,90%,80%);stroke-opacity:1;stroke-miterlimit:10;" d="M 3.153594 1.965061 C 3.225039 1.841321 3.357109 1.765059 3.5 1.765059 " transform="matrix(100,0,0,99.881597,5,5)"/>
<path style="fill:none;stroke-width:0.12;stroke-linecap:butt;stroke-linejoin:miter;stroke:rgb(0%,90%,80%);stroke-opacity:1;stroke-miterlimit:10;" d="M 3.846406 1.965061 C 3.917852 2.08884 3.917852 2.241287 3.846406 2.365066 " transform="matrix(100,0,0,99.881597,5,5)"/>
<path style="fill:none;stroke-width:0.12;stroke-linecap:butt;stroke-linejoin:miter;stroke:rgb(0%,90%,80%);stroke-opacity:1;stroke-miterlimit:10;" d="M 3.5 1.765059 C 3.642891 1.765059 3.774961 1.841321 3.846406 1.965061 " transform="matrix(100,0,0,99.881597,5,5)"/>
<path style="fill:none;stroke-width:0.12;stroke-linecap:butt;stroke-linejoin:miter;stroke:rgb(0%,90%,80%);stroke-opacity:1;stroke-miterlimit:10;" d="M 3.3 1.818638 L 3.2 1.645464 " transform="matrix(100,0,0,99.881597,5,5)"/>
<path style="fill:none;stroke-width:0.12;stroke-linecap:butt;stroke-linejoin:miter;stroke:rgb(0%,60%,0%);stroke-opacity:1;stroke-miterlimit:10;" d="M 4.346406 3.231091 C 4.274961 3.354832 4.142891 3.431094 4 3.431094 " transform="matrix(100,0,0,99.881597,5,5)"/>
<path style="fill:none;stroke-width:0.12;stroke-linecap:butt;stroke-linejoin:miter;stroke:rgb(0%,60%,0%);stroke-opacity:1;stroke-miterlimit:10;" d="M 4 3.431094 C 3.857109 3.431094 3.725039 3.354832 3.653594 3.231091 " transform="matrix(100,0,0,99.881597,5,5)"/>
<path style="fill:none;stroke-width:0.12;stroke-linecap:butt;stroke-linejoin:miter;stroke:rgb(0%,60%,0%);stroke-opacity:1;stroke-miterlimit:10;" d="M 3.653594 3.231091 C 3.582148 3.107312 3.582148 2.954866 3.653594 2.831086 " transform="matrix(100,0,0,99.881597,5,5)"/>
<path style="fill:none;stroke-width:0.12;stroke-linecap:butt;stroke-linejoin:miter;stroke:rgb(0%,60%,0%);stroke-opacity:1;stroke-miterlimit:10;" d="M 3.653594 2.831086 C 3.725039 2.707346 3.857109 2.631084 4 2.631084 " transform="matrix(100,0,0,99.881597,5,5)"/>
<path style="fill:none;stroke-width:0.12;stroke-linecap:butt;stroke-linejoin:miter;stroke:rgb(0%,60%,0%);stroke-opacity:1;stroke-miterlimit:10;" d="M 4 2.631084 C 4.142891 2.631084 4.274961 2.707346 4.346406 2.831086 " transform="matrix(100,0,0,99.881597,5,5)"/>
<path style="fill:none;stroke-width:0.12;stroke-linecap:butt;stroke-linejoin:miter;stroke:rgb(0%,60%,0%);stroke-opacity:1;stroke-miterlimit:10;" d="M 3.6 3.031089 L 3.4 3.031089 " transform="matrix(100,0,0,99.881597,5,5)"/>
<path style="fill:none;stroke-width:0.12;stroke-linecap:butt;stroke-linejoin:miter;stroke:rgb(0%,60%,0%);stroke-opacity:1;stroke-miterlimit:10;" d="M 3.4 3.031089 L 3 3.031089 " transform="matrix(100,0,0,99.881597,5,5)"/>
<path style=" stroke:none;fill-rule:nonzero;fill:rgb(0%,60%,0%);fill-opacity:1;" d="M 377 221.25 C 377 233.386719 367.148438 243.222656 355 243.222656 C 342.851562 243.222656 333 233.386719 333 221.25 C 333 209.113281 342.851562 199.277344 355 199.277344 C 367.148438 199.277344 377 209.113281 377 221.25 "/>
<path style="fill:none;stroke-width:0.12;stroke-linecap:butt;stroke-linejoin:miter;stroke:rgb(0%,60%,0%);stroke-opacity:1;stroke-miterlimit:10;" d="M 3.5 2.165064 L 3.3 2.511489 " transform="matrix(100,0,0,99.881597,5,5)"/>
<path style="fill:none;stroke-width:0.12;stroke-linecap:butt;stroke-linejoin:miter;stroke:rgb(0%,60%,0%);stroke-opacity:1;stroke-miterlimit:10;" d="M 3.3 2.511489 L 3.2 2.684663 " transform="matrix(100,0,0,99.881597,5,5)"/>
<path style="fill:none;stroke-width:0.12;stroke-linecap:butt;stroke-linejoin:miter;stroke:rgb(0%,60%,0%);stroke-opacity:1;stroke-miterlimit:10;" d="M 3.2 2.684663 L 3 3.031089 " transform="matrix(100,0,0,99.881597,5,5)"/>
<path style=" stroke:none;fill-rule:nonzero;fill:rgb(0%,60%,0%);fill-opacity:1;" d="M 327 307.75 C 327 319.886719 317.148438 329.722656 305 329.722656 C 292.851562 329.722656 283 319.886719 283 307.75 C 283 295.613281 292.851562 285.777344 305 285.777344 C 317.148438 285.777344 327 295.613281 327 307.75 "/>
<path style="fill:none;stroke-width:0.12;stroke-linecap:butt;stroke-linejoin:miter;stroke:rgb(100%,50%,0%);stroke-opacity:1;stroke-miterlimit:10;" d="M 3.846406 0.633015 C 3.774961 0.756755 3.642891 0.833018 3.5 0.833018 " transform="matrix(100,0,0,99.881597,5,5)"/>
<path style="fill:none;stroke-width:0.12;stroke-linecap:butt;stroke-linejoin:miter;stroke:rgb(100%,50%,0%);stroke-opacity:1;stroke-miterlimit:10;" d="M 3.5 0.833018 C 3.357109 0.833018 3.225039 0.756755 3.153594 0.633015 " transform="matrix(100,0,0,99.881597,5,5)"/>
<path style="fill:none;stroke-width:0.12;stroke-linecap:butt;stroke-linejoin:miter;stroke:rgb(100%,50%,0%);stroke-opacity:1;stroke-miterlimit:10;" d="M 3.153594 0.23301 C 3.225039 0.10927 3.357109 0.0330078 3.5 0.0330078 " transform="matrix(100,0,0,99.881597,5,5)"/>
<path style="fill:none;stroke-width:0.12;stroke-linecap:butt;stroke-linejoin:miter;stroke:rgb(100%,50%,0%);stroke-opacity:1;stroke-miterlimit:10;" d="M 3.846406 0.23301 C 3.917852 0.35679 3.917852 0.509236 3.846406 0.633015 " transform="matrix(100,0,0,99.881597,5,5)"/>
<path style="fill:none;stroke-width:0.12;stroke-linecap:butt;stroke-linejoin:miter;stroke:rgb(100%,50%,0%);stroke-opacity:1;stroke-miterlimit:10;" d="M 3.5 0.0330078 C 3.642891 0.0330078 3.774961 0.10927 3.846406 0.23301 " transform="matrix(100,0,0,99.881597,5,5)"/>
<path style=" stroke:none;fill-rule:nonzero;fill:rgb(100%,50%,0%);fill-opacity:1;" d="M 427 134.75 C 427 146.886719 417.148438 156.722656 405 156.722656 C 392.851562 156.722656 383 146.886719 383 134.75 C 383 122.613281 392.851562 112.777344 405 112.777344 C 417.148438 112.777344 427 122.613281 427 134.75 "/>
<path style="fill:none;stroke-width:0.12;stroke-linecap:butt;stroke-linejoin:miter;stroke:rgb(100%,50%,0%);stroke-opacity:1;stroke-miterlimit:10;" d="M 4 1.299038 L 3.8 0.952612 " transform="matrix(100,0,0,99.881597,5,5)"/>
<path style="fill:none;stroke-width:0.12;stroke-linecap:butt;stroke-linejoin:miter;stroke:rgb(100%,50%,0%);stroke-opacity:1;stroke-miterlimit:10;" d="M 3.8 0.952612 L 3.7 0.779439 " transform="matrix(100,0,0,99.881597,5,5)"/>
<path style=" stroke:none;fill-rule:nonzero;fill:rgb(100%,50%,0%);fill-opacity:1;" d="M 477 48.25 C 477 60.386719 467.148438 70.222656 455 70.222656 C 442.851562 70.222656 433 60.386719 433 48.25 C 433 36.113281 442.851562 26.277344 455 26.277344 C 467.148438 26.277344 477 36.113281 477 48.25 "/>
<path style="fill:none;stroke-width:0.12;stroke-linecap:butt;stroke-linejoin:miter;stroke:rgb(100%,50%,0%);stroke-opacity:1;stroke-miterlimit:10;" d="M 4.5 0.433013 L 4.1 0.433013 " transform="matrix(100,0,0,99.881597,5,5)"/>
<path style="fill:none;stroke-width:0.12;stroke-linecap:butt;stroke-linejoin:miter;stroke:rgb(100%,50%,0%);stroke-opacity:1;stroke-miterlimit:10;" d="M 4.1 0.433013 L 3.9 0.433013 " transform="matrix(100,0,0,99.881597,5,5)"/>
<path style="fill:none;stroke-width:0.12;stroke-linecap:butt;stroke-linejoin:miter;stroke:rgb(100%,0%,0%);stroke-opacity:1;stroke-miterlimit:10;" d="M 1.846406 0.633015 C 1.774961 0.756755 1.642891 0.833018 1.5 0.833018 " transform="matrix(100,0,0,99.881597,5,5)"/>
<path style="fill:none;stroke-width:0.12;stroke-linecap:butt;stroke-linejoin:miter;stroke:rgb(100%,0%,0%);stroke-opacity:1;stroke-miterlimit:10;" d="M 1.5 0.833018 C 1.357109 0.833018 1.225039 0.756755 1.153594 0.633015 " transform="matrix(100,0,0,99.881597,5,5)"/>
<path style="fill:none;stroke-width:0.12;stroke-linecap:butt;stroke-linejoin:miter;stroke:rgb(100%,0%,0%);stroke-opacity:1;stroke-miterlimit:10;" d="M 1.153594 0.633015 C 1.082148 0.509236 1.082148 0.35679 1.153594 0.23301 " transform="matrix(100,0,0,99.881597,5,5)"/>
<path style="fill:none;stroke-width:0.12;stroke-linecap:butt;stroke-linejoin:miter;stroke:rgb(100%,0%,0%);stroke-opacity:1;stroke-miterlimit:10;" d="M 1.153594 0.23301 C 1.225039 0.10927 1.357109 0.0330078 1.5 0.0330078 " transform="matrix(100,0,0,99.881597,5,5)"/>
<path style="fill:none;stroke-width:0.12;stroke-linecap:butt;stroke-linejoin:miter;stroke:rgb(100%,0%,0%);stroke-opacity:1;stroke-miterlimit:10;" d="M 1.5 0.0330078 C 1.642891 0.0330078 1.774961 0.10927 1.846406 0.23301 " transform="matrix(100,0,0,99.881597,5,5)"/>
<path style="fill:none;stroke-width:0.12;stroke-linecap:butt;stroke-linejoin:miter;stroke:rgb(100%,0%,0%);stroke-opacity:1;stroke-miterlimit:10;" d="M 0.846406 0.633015 C 0.774961 0.756755 0.642891 0.833018 0.5 0.833018 " transform="matrix(100,0,0,99.881597,5,5)"/>
<path style="fill:none;stroke-width:0.12;stroke-linecap:butt;stroke-linejoin:miter;stroke:rgb(100%,0%,0%);stroke-opacity:1;stroke-miterlimit:10;" d="M 0.5 0.833018 C 0.357109 0.833018 0.225039 0.756755 0.153594 0.633015 " transform="matrix(100,0,0,99.881597,5,5)"/>
<path style="fill:none;stroke-width:0.12;stroke-linecap:butt;stroke-linejoin:miter;stroke:rgb(100%,0%,0%);stroke-opacity:1;stroke-miterlimit:10;" d="M 0.153594 0.633015 C 0.0821484 0.509236 0.0821484 0.35679 0.153594 0.23301 " transform="matrix(100,0,0,99.881597,5,5)"/>
<path style="fill:none;stroke-width:0.12;stroke-linecap:butt;stroke-linejoin:miter;stroke:rgb(100%,0%,0%);stroke-opacity:1;stroke-miterlimit:10;" d="M 0.153594 0.23301 C 0.225039 0.10927 0.357109 0.0330078 0.5 0.0330078 " transform="matrix(100,0,0,99.881597,5,5)"/>
<path style="fill:none;stroke-width:0.12;stroke-linecap:butt;stroke-linejoin:miter;stroke:rgb(100%,0%,0%);stroke-opacity:1;stroke-miterlimit:10;" d="M 0.846406 0.23301 C 0.917852 0.35679 0.917852 0.509236 0.846406 0.633015 " transform="matrix(100,0,0,99.881597,5,5)"/>
<path style="fill:none;stroke-width:0.12;stroke-linecap:butt;stroke-linejoin:miter;stroke:rgb(100%,0%,0%);stroke-opacity:1;stroke-miterlimit:10;" d="M 0.9 0.433013 L 1.1 0.433013 " transform="matrix(100,0,0,99.881597,5,5)"/>
<path style=" stroke:none;fill-rule:nonzero;fill:rgb(100%,0%,0%);fill-opacity:1;" d="M 127 134.75 C 127 146.886719 117.148438 156.722656 105 156.722656 C 92.851562 156.722656 83 146.886719 83 134.75 C 83 122.613281 92.851562 112.777344 105 112.777344 C 117.148438 112.777344 127 122.613281 127 134.75 "/>
<path style="fill:none;stroke-width:0.12;stroke-linecap:butt;stroke-linejoin:miter;stroke:rgb(100%,0%,0%);stroke-opacity:1;stroke-miterlimit:10;" d="M 1 1.299038 L 1.2 0.952612 " transform="matrix(100,0,0,99.881597,5,5)"/>
<path style="fill:none;stroke-width:0.12;stroke-linecap:butt;stroke-linejoin:miter;stroke:rgb(100%,0%,0%);stroke-opacity:1;stroke-miterlimit:10;" d="M 1.2 0.952612 L 1.3 0.779439 " transform="matrix(100,0,0,99.881597,5,5)"/>
<path style=" stroke:none;fill-rule:nonzero;fill:rgb(0%,0%,80%);fill-opacity:1;" d="M 527 134.75 C 527 146.886719 517.148438 156.722656 505 156.722656 C 492.851562 156.722656 483 146.886719 483 134.75 C 483 122.613281 492.851562 112.777344 505 112.777344 C 517.148438 112.777344 527 122.613281 527 134.75 "/>
<path style=" stroke:none;fill-rule:nonzero;fill:rgb(0%,0%,80%);fill-opacity:1;" d="M 577 221.25 C 577 233.386719 567.148438 243.222656 555 243.222656 C 542.851562 243.222656 533 233.386719 533 221.25 C 533 209.113281 542.851562 199.277344 555 199.277344 C 567.148438 199.277344 577 209.113281 577 221.25 "/>
<path style="fill:none;stroke-width:0.12;stroke-linecap:butt;stroke-linejoin:miter;stroke:rgb(0%,0%,80%);stroke-opacity:1;stroke-miterlimit:10;" d="M 5.5 2.165064 L 5.3 1.818638 " transform="matrix(100,0,0,99.881597,5,5)"/>
<path style="fill:none;stroke-width:0.12;stroke-linecap:butt;stroke-linejoin:miter;stroke:rgb(0%,0%,80%);stroke-opacity:1;stroke-miterlimit:10;" d="M 5.3 1.818638 L 5.2 1.645464 " transform="matrix(100,0,0,99.881597,5,5)"/>
<path style="fill:none;stroke-width:0.12;stroke-linecap:butt;stroke-linejoin:miter;stroke:rgb(0%,0%,80%);stroke-opacity:1;stroke-miterlimit:10;" d="M 5.2 1.645464 L 5 1.299038 " transform="matrix(100,0,0,99.881597,5,5)"/>
<path style="fill:none;stroke-width:0.12;stroke-linecap:butt;stroke-linejoin:miter;stroke:rgb(0%,0%,80%);stroke-opacity:1;stroke-miterlimit:10;" d="M 4.5 2.565068 C 4.357109 2.565068 4.225039 2.488806 4.153594 2.365066 " transform="matrix(100,0,0,99.881597,5,5)"/>
<path style="fill:none;stroke-width:0.12;stroke-linecap:butt;stroke-linejoin:miter;stroke:rgb(0%,0%,80%);stroke-opacity:1;stroke-miterlimit:10;" d="M 4.153594 2.365066 C 4.082148 2.241287 4.082148 2.08884 4.153594 1.965061 " transform="matrix(100,0,0,99.881597,5,5)"/>
<path style="fill:none;stroke-width:0.12;stroke-linecap:butt;stroke-linejoin:miter;stroke:rgb(0%,0%,80%);stroke-opacity:1;stroke-miterlimit:10;" d="M 4.153594 1.965061 C 4.225039 1.841321 4.357109 1.765059 4.5 1.765059 " transform="matrix(100,0,0,99.881597,5,5)"/>
<path style="fill:none;stroke-width:0.12;stroke-linecap:butt;stroke-linejoin:miter;stroke:rgb(0%,0%,80%);stroke-opacity:1;stroke-miterlimit:10;" d="M 4.846406 1.965061 C 4.917852 2.08884 4.917852 2.241287 4.846406 2.365066 " transform="matrix(100,0,0,99.881597,5,5)"/>
<path style="fill:none;stroke-width:0.12;stroke-linecap:butt;stroke-linejoin:miter;stroke:rgb(0%,0%,80%);stroke-opacity:1;stroke-miterlimit:10;" d="M 4.5 1.765059 C 4.642891 1.765059 4.774961 1.841321 4.846406 1.965061 " transform="matrix(100,0,0,99.881597,5,5)"/>
<path style="fill:none;stroke-width:0.12;stroke-linecap:butt;stroke-linejoin:miter;stroke:rgb(0%,0%,80%);stroke-opacity:1;stroke-miterlimit:10;" d="M 4.7 1.818638 L 4.8 1.645464 " transform="matrix(100,0,0,99.881597,5,5)"/>
<path style="fill:none;stroke-width:0.12;stroke-linecap:butt;stroke-linejoin:miter;stroke:rgb(0%,0%,80%);stroke-opacity:1;stroke-miterlimit:10;" d="M 4.8 1.645464 L 5 1.299038 " transform="matrix(100,0,0,99.881597,5,5)"/>
</g>
</svg>
